<svg width="32" height="32" viewBox="0 0 32 32" fill="none" xmlns="http://www.w3.org/2000/svg">
<path d="M14.848 16.1558L14.0536 19.3762C15.0342 19.6225 18.0586 20.6046 18.5055 18.7879C18.9728 16.8933 15.8285 16.4033 14.848 16.1558ZM15.9315 11.7609L15.2113 14.6816C16.0279 14.8875 18.5451 15.727 18.9529 14.0746C19.3778 12.3509 16.7481 11.9667 15.9315 11.7609H15.9315ZM16 2.66699C13.3629 2.66699 10.785 3.44898 8.59236 4.91406C6.39971 6.37915 4.69074 8.46153 3.68157 10.8979C2.6724 13.3342 2.40836 16.0151 2.92283 18.6015C3.4373 21.1879 4.70717 23.5637 6.57188 25.4284C8.43658 27.2931 10.8123 28.563 13.3988 29.0775C15.9852 29.5919 18.6661 29.3279 21.1024 28.3187C23.5388 27.3096 25.6211 25.6006 27.0862 23.4079C28.5513 21.2153 29.3333 18.6374 29.3333 16.0003C29.3333 14.2494 28.9884 12.5156 28.3184 10.8979C27.6483 9.2802 26.6662 7.81035 25.4281 6.57224C24.1899 5.33412 22.7201 4.35199 21.1024 3.68193C19.4847 3.01187 17.7509 2.66699 16 2.66699V2.66699ZM21.8106 14.1008C21.7826 14.6124 21.5863 15.1004 21.2523 15.4888C20.9183 15.8773 20.4652 16.1445 19.9636 16.2488C20.2933 16.383 20.5916 16.5841 20.8397 16.8393C21.0878 17.0945 21.2804 17.3983 21.4052 17.7317C21.5301 18.065 21.5846 18.4205 21.5652 18.776C21.5458 19.1314 21.4531 19.4789 21.2927 19.7967C20.512 22.0529 18.6572 22.2434 16.1907 21.7712L15.592 24.1975L14.1456 23.8329L14.7364 21.4392C14.3615 21.345 13.9783 21.245 13.5836 21.1367L12.9908 23.5416L11.5459 23.177L12.1446 20.7462C11.8067 20.6587 11.4635 20.5658 11.1134 20.477L9.23103 20.0024L9.94913 18.3279C9.94913 18.3279 11.0149 18.6146 11.0005 18.5933C11.0668 18.6145 11.1367 18.6223 11.2061 18.6162C11.2754 18.6102 11.3429 18.5904 11.4046 18.5581C11.4662 18.5258 11.5209 18.4815 11.5653 18.4279C11.6097 18.3743 11.6431 18.3124 11.6634 18.2458L13.2866 11.6621C13.3075 11.4604 13.2486 11.2585 13.1227 11.0996C12.9968 10.9406 12.8138 10.8372 12.6126 10.8113C12.6353 10.7959 11.562 10.5471 11.562 10.5471L11.9468 8.98462L13.9416 9.48837L13.94 9.49593C14.2398 9.57129 14.5488 9.64298 14.8636 9.7155L15.4565 7.31299L16.9021 7.67757L16.3213 10.033C16.7094 10.1226 17.1 10.213 17.4802 10.3088L18.057 7.96883L19.5035 8.33342L18.9111 10.7367C20.7373 11.373 22.073 12.3267 21.8106 14.1008Z" fill="black"/>
</svg>
