<svg width="32" height="32" viewBox="0 0 32 32" fill="none" xmlns="http://www.w3.org/2000/svg">
<path d="M16 2.99512C12.834 2.99525 9.77128 4.12194 7.35995 6.17358C4.94862 8.22523 3.346 11.0679 2.83884 14.1931C2.33168 17.3182 2.95309 20.5219 4.59186 23.2308C6.23064 25.9397 8.77984 27.9771 11.7834 28.9784C12.45 29.0951 12.7 28.6951 12.7 28.3451C12.7 28.0284 12.6833 26.9784 12.6833 25.8618C9.33333 26.4784 8.46666 25.0452 8.2 24.2952C7.9041 23.5657 7.43503 22.9193 6.83333 22.4118C6.36666 22.1618 5.7 21.5451 6.81665 21.5285C7.24303 21.5747 7.65198 21.7231 8.00884 21.961C8.3657 22.1989 8.65995 22.5193 8.86666 22.8951C9.04902 23.2227 9.29424 23.5111 9.58825 23.7438C9.88226 23.9764 10.2193 24.1488 10.58 24.251C10.9408 24.3532 11.3181 24.3832 11.6905 24.3393C12.0629 24.2953 12.4229 24.1784 12.75 23.9951C12.8077 23.3173 13.1098 22.6835 13.6 22.2118C10.6333 21.8785 7.53333 20.7284 7.53333 15.6285C7.51459 14.3034 8.00358 13.0213 8.9 12.0452C8.49237 10.8934 8.54007 9.62954 9.03333 8.51182C9.03333 8.51182 10.15 8.16181 12.7 9.87849C14.8817 9.27845 17.1849 9.27845 19.3667 9.87849C21.9166 8.14516 23.0333 8.51182 23.0333 8.51182C23.5267 9.62952 23.5744 10.8935 23.1667 12.0452C24.0658 13.0196 24.5552 14.3028 24.5333 15.6285C24.5333 20.7451 21.4166 21.8785 18.45 22.2118C18.7682 22.5343 19.0133 22.9215 19.1686 23.3472C19.3239 23.7728 19.3857 24.2268 19.35 24.6785C19.35 26.4618 19.3333 27.8951 19.3333 28.3452C19.3333 28.6952 19.5833 29.1118 20.25 28.9785C23.2482 27.969 25.7901 25.9268 27.4219 23.2165C29.0537 20.5062 29.6692 17.3042 29.1585 14.1821C28.6478 11.06 27.0442 8.22095 24.634 6.1718C22.2237 4.12265 19.1636 2.99676 16 2.99512V2.99512Z" fill="black"/>
</svg>
