<svg width="32" height="32" viewBox="0 0 32 32" fill="none" xmlns="http://www.w3.org/2000/svg">
<path d="M16 12.6937C15.346 12.6937 14.7067 12.8876 14.1629 13.2509C13.6191 13.6143 13.1953 14.1307 12.945 14.7349C12.6947 15.3391 12.6292 16.004 12.7568 16.6454C12.8844 17.2869 13.1993 17.876 13.6618 18.3385C14.1242 18.8009 14.7134 19.1159 15.3549 19.2435C15.9963 19.371 16.6612 19.3056 17.2654 19.0553C17.8696 18.805 18.386 18.3812 18.7494 17.8374C19.1127 17.2936 19.3066 16.6543 19.3066 16.0003C19.3066 15.5661 19.2211 15.1361 19.0549 14.7349C18.8887 14.3337 18.6452 13.9692 18.3381 13.6622C18.0311 13.3551 17.6665 13.1115 17.2654 12.9454C16.8642 12.7792 16.4342 12.6937 16 12.6937V12.6937ZM29.24 9.42699C29.2329 8.39734 29.0433 7.37709 28.68 6.41366C28.4123 5.70867 27.9983 5.06845 27.465 4.53524C26.9318 4.00203 26.2916 3.58795 25.5866 3.32033C24.6232 2.95694 23.6029 2.76734 22.5733 2.76033C20.8533 2.66699 20.3466 2.66699 16 2.66699C11.6533 2.66699 11.1466 2.66699 9.42663 2.76033C8.39697 2.76734 7.37672 2.95694 6.41329 3.32033C5.70831 3.58795 5.06808 4.00203 4.53487 4.53524C4.00166 5.06845 3.58758 5.70867 3.31996 6.41366C2.95658 7.37709 2.76697 8.39734 2.75996 9.42699C2.66663 11.147 2.66663 11.6537 2.66663 16.0003C2.66663 20.347 2.66663 20.8537 2.75996 22.5737C2.77431 23.6069 2.96366 24.6303 3.31996 25.6003C3.5864 26.3021 4.00013 26.9386 4.53329 27.467C5.06422 28.0034 5.70581 28.4175 6.41329 28.6803C7.37672 29.0437 8.39697 29.2333 9.42663 29.2403C11.1466 29.3337 11.6533 29.3337 16 29.3337C20.3466 29.3337 20.8533 29.3337 22.5733 29.2403C23.6029 29.2333 24.6232 29.0437 25.5866 28.6803C26.2941 28.4175 26.9357 28.0034 27.4666 27.467C27.9998 26.9386 28.4135 26.3021 28.68 25.6003C29.043 24.6322 29.2326 23.6076 29.24 22.5737C29.3333 20.8537 29.3333 20.347 29.3333 16.0003C29.3333 11.6537 29.3333 11.147 29.24 9.42699V9.42699ZM25.8533 20.0937C25.8105 20.9165 25.6349 21.7269 25.3333 22.4937C25.0744 23.1332 24.6896 23.7142 24.2018 24.2021C23.7139 24.69 23.1329 25.0748 22.4933 25.3337C21.7193 25.6185 20.9043 25.776 20.08 25.8003C19.0266 25.8003 18.7466 25.8003 16 25.8003C13.2533 25.8003 12.9733 25.8003 11.92 25.8003C11.0956 25.776 10.2806 25.6185 9.50663 25.3337C8.84543 25.088 8.24833 24.696 7.75996 24.187C7.27685 23.7087 6.90375 23.1308 6.66663 22.4937C6.3807 21.7205 6.22743 20.9046 6.21329 20.0803C6.21329 19.027 6.21329 18.747 6.21329 16.0003C6.21329 13.2537 6.21329 12.9737 6.21329 11.9203C6.22743 11.0961 6.3807 10.2802 6.66663 9.50699C6.91233 8.8458 7.30433 8.2487 7.81329 7.76033C8.29374 7.27982 8.87098 6.90712 9.50663 6.66699C10.2806 6.3822 11.0956 6.22461 11.92 6.20033V6.20033C12.9733 6.20033 13.2533 6.20033 16 6.20033C18.7466 6.20033 19.0266 6.20033 20.08 6.20033C20.9043 6.22461 21.7193 6.3822 22.4933 6.66699C23.1545 6.9127 23.7516 7.30469 24.24 7.81366C24.7231 8.29199 25.0962 8.86984 25.3333 9.50699C25.6181 10.281 25.7757 11.096 25.8 11.9203C25.8 12.9737 25.8 13.2537 25.8 16.0003C25.8 18.747 25.8933 19.027 25.8533 20.0803V20.0937ZM23.72 10.1737C23.5612 9.74297 23.3109 9.35185 22.9863 9.02728C22.6618 8.70271 22.2706 8.45241 21.84 8.29366C21.2486 8.08867 20.6258 7.98938 20 8.00033C18.96 8.00033 18.6666 8.00033 16 8.00033C13.3333 8.00033 13.04 8.00033 12 8.00033C11.371 8.00647 10.7481 8.12384 10.16 8.34699C9.73586 8.49853 9.34888 8.73861 9.02474 9.05126C8.70059 9.36391 8.44671 9.74198 8.27996 10.1603C8.08633 10.7541 7.99173 11.3758 7.99996 12.0003C7.99996 13.0403 7.99996 13.3337 7.99996 16.0003C7.99996 18.667 7.99996 18.9603 7.99996 20.0003C8.01318 20.6286 8.13032 21.2503 8.34663 21.8403C8.50538 22.271 8.75567 22.6621 9.08024 22.9867C9.40482 23.3113 9.79594 23.5616 10.2266 23.7203C10.7955 23.9295 11.3942 24.0466 12 24.067V24.067C13.04 24.067 13.3333 24.067 16 24.067C18.6666 24.067 18.96 24.067 20 24.067C20.6289 24.0608 21.2519 23.9435 21.84 23.7203C22.2706 23.5616 22.6618 23.3113 22.9863 22.9867C23.3109 22.6621 23.5612 22.271 23.72 21.8403C23.9431 21.2522 24.0605 20.6293 24.0666 20.0003C24.0666 18.9603 24.0666 18.667 24.0666 16.0003C24.0666 13.3337 24.0666 13.0403 24.0666 12.0003C24.067 11.3707 23.9494 10.7466 23.72 10.1603V10.1737ZM16 21.0937C15.3317 21.0937 14.67 20.9618 14.0528 20.7057C13.4356 20.4496 12.875 20.0742 12.4031 19.6011C11.9312 19.1279 11.5573 18.5663 11.3028 17.9485C11.0483 17.3306 10.9182 16.6686 10.92 16.0003V16.0003C10.92 14.9924 11.219 14.0071 11.7793 13.1692C12.3395 12.3314 13.1358 11.6785 14.0673 11.2934C14.9987 10.9083 16.0235 10.8082 17.0119 11.0059C18.0002 11.2035 18.9078 11.6899 19.6195 12.4035C20.3313 13.1172 20.8154 14.026 21.0104 15.0149C21.2054 16.0038 21.1026 17.0283 20.7151 17.9587C20.3275 18.8892 19.6726 19.6837 18.8333 20.2418C17.9939 20.7998 17.0079 21.0963 16 21.0937V21.0937ZM21.3333 11.907C21.0386 11.8758 20.7658 11.7366 20.5675 11.5163C20.3693 11.296 20.2596 11.01 20.2596 10.7137C20.2596 10.4173 20.3693 10.1314 20.5675 9.91103C20.7658 9.6907 21.0386 9.55152 21.3333 9.52033V9.52033C21.628 9.55152 21.9008 9.6907 22.099 9.91103C22.2973 10.1314 22.407 10.4173 22.407 10.7137C22.407 11.01 22.2973 11.296 22.099 11.5163C21.9008 11.7366 21.628 11.8758 21.3333 11.907Z" fill="black"/>
</svg>
