<svg width="32" height="32" viewBox="0 0 32 32" fill="none" xmlns="http://www.w3.org/2000/svg">
<path d="M27.2934 2.6662H4.7067C4.45281 2.66268 4.20071 2.7092 3.96479 2.80311C3.72888 2.89703 3.51378 3.0365 3.33177 3.21355C3.14976 3.39061 3.00441 3.60178 2.90403 3.83501C2.80364 4.06825 2.75018 4.31897 2.7467 4.57287V27.4262C2.75018 27.6801 2.80364 27.9308 2.90403 28.1641C3.00441 28.3973 3.14976 28.6085 3.33177 28.7855C3.51378 28.9626 3.72888 29.102 3.96479 29.196C4.20071 29.2899 4.45281 29.3364 4.7067 29.3329H27.2934C27.5473 29.3364 27.7994 29.2899 28.0353 29.196C28.2712 29.102 28.4863 28.9626 28.6683 28.7855C28.8503 28.6085 28.9957 28.3973 29.096 28.1641C29.1964 27.9308 29.2499 27.6801 29.2534 27.4262V4.57287C29.2499 4.31897 29.1964 4.06825 29.096 3.83501C28.9957 3.60178 28.8503 3.39061 28.6683 3.21355C28.4863 3.0365 28.2712 2.89703 28.0353 2.80311C27.7994 2.7092 27.5473 2.66268 27.2934 2.6662V2.6662ZM10.7867 24.9862H6.7867V12.9862H10.7867V24.9862ZM8.7867 11.3062C8.23505 11.3062 7.706 11.0871 7.31592 10.697C6.92585 10.3069 6.7067 9.77785 6.7067 9.2262C6.7067 8.67455 6.92585 8.1455 7.31592 7.75542C7.706 7.36534 8.23505 7.1462 8.7867 7.1462C9.07963 7.11298 9.37627 7.14201 9.6572 7.23138C9.93814 7.32075 10.197 7.46846 10.4169 7.66482C10.6368 7.86118 10.8127 8.10177 10.9332 8.37084C11.0537 8.63992 11.1159 8.9314 11.1159 9.2262C11.1159 9.52101 11.0537 9.81249 10.9332 10.0816C10.8127 10.3506 10.6368 10.5912 10.4169 10.7876C10.197 10.9839 9.93814 11.1317 9.6572 11.221C9.37627 11.3104 9.07963 11.3394 8.7867 11.3062V11.3062ZM25.2134 24.9862H21.2134V18.5462C21.2134 16.9329 20.64 15.8795 19.1867 15.8795C18.7369 15.8828 18.299 16.0239 17.9318 16.2838C17.5647 16.5436 17.286 16.9098 17.1334 17.3329C17.029 17.6463 16.9838 17.9763 17 18.3062V24.9729H13C13 24.9729 13 14.0662 13 12.9729H17V14.6662C17.3634 14.0357 17.8919 13.5162 18.5286 13.1638C19.1653 12.8114 19.8861 12.6393 20.6134 12.6662C23.28 12.6662 25.2134 14.3862 25.2134 18.0795V24.9862Z" fill="black"/>
</svg>
