<svg width="32" height="32" viewBox="0 0 32 32" fill="none" xmlns="http://www.w3.org/2000/svg">
<path d="M28.2788 8.55551H29.3334V5.44434H19.3598L16.0453 17.6665H15.9547L12.6703 5.44434H2.66675V8.55543H3.69124C3.92808 8.59398 4.14782 8.70297 4.32182 8.8682C4.49582 9.03343 4.61602 9.24724 4.66675 9.48178V22.5889C4.61288 22.815 4.49007 23.0188 4.3153 23.172C4.14054 23.3253 3.92246 23.4204 3.69124 23.4443H2.66675V26.5555H10.6667V23.4443H8.66675V9.66659H8.78344L13.3935 26.5555H17.0095L21.6799 9.66659H21.778V23.4443H19.7779V26.5555H29.3334V23.4443H28.2788C28.0529 23.4149 27.8413 23.3173 27.6724 23.1644C27.5034 23.0115 27.3852 22.8107 27.3334 22.5889V9.48186C27.3824 9.25158 27.4982 9.04087 27.6664 8.8761C27.8346 8.71132 28.0476 8.59981 28.2788 8.55551V8.55551Z" fill="black"/>
</svg>
