<svg width="32" height="32" viewBox="0 0 32 32" fill="none" xmlns="http://www.w3.org/2000/svg">
<path d="M29.3333 7.73361C28.3311 8.16841 27.2712 8.45583 26.1866 8.58695C27.3309 7.90337 28.1883 6.82799 28.6 5.56028C27.5247 6.20036 26.3476 6.65134 25.12 6.89361C24.2994 6.00371 23.2066 5.41134 22.013 5.20941C20.8195 5.00749 19.5927 5.20742 18.525 5.77787C17.4573 6.34831 16.6092 7.25699 16.1136 8.36139C15.618 9.4658 15.503 10.7035 15.7866 11.8803C13.6125 11.7703 11.4859 11.2042 9.54483 10.2188C7.60378 9.23331 5.89175 7.85054 4.51996 6.16028C4.03881 7.0005 3.78598 7.95204 3.78663 8.92028C3.78492 9.81946 4.00558 10.7051 4.42897 11.4984C4.85235 12.2916 5.46532 12.9679 6.21329 13.4669C5.34393 13.4433 4.49314 13.21 3.73329 12.7869V12.8536C3.73981 14.1135 4.18129 15.3324 4.98305 16.3042C5.78481 17.2761 6.89763 17.9411 8.13329 18.1869C7.65763 18.3317 7.16379 18.408 6.66663 18.4136C6.32248 18.4096 5.97919 18.3784 5.63996 18.3203C5.99184 19.404 6.67279 20.3511 7.58806 21.0298C8.50333 21.7085 9.60739 22.085 10.7466 22.1069C8.8229 23.6206 6.4478 24.4468 3.99996 24.4536C3.55427 24.4551 3.10894 24.4284 2.66663 24.3736C5.16586 25.9873 8.07838 26.8439 11.0533 26.8403C13.1062 26.8616 15.1428 26.4736 17.0441 25.6991C18.9454 24.9245 20.6733 23.7788 22.1269 22.3289C23.5805 20.8791 24.7306 19.1541 25.51 17.2548C26.2895 15.3555 26.6827 13.3199 26.6666 11.2669C26.6666 11.0403 26.6666 10.8003 26.6666 10.5603C27.7129 9.78003 28.6153 8.82351 29.3333 7.73361V7.73361Z" fill="black"/>
</svg>
