<svg width="32" height="32" viewBox="0 0 32 32" fill="none" xmlns="http://www.w3.org/2000/svg">
<path d="M29.3333 8.73366C29.3183 8.15842 29.2738 7.58433 29.2 7.01366C29.1004 6.51382 28.9345 6.02954 28.7066 5.57366C28.4683 5.07913 28.1483 4.62836 27.76 4.24033C27.3681 3.8566 26.9181 3.53711 26.4266 3.29366C25.9701 3.07025 25.4859 2.90882 24.9866 2.81366C24.4214 2.72899 23.8514 2.68001 23.28 2.66699H8.73329C8.15806 2.68197 7.58397 2.72648 7.01329 2.80033C6.51346 2.89988 6.02917 3.0658 5.57329 3.29366C5.07877 3.53197 4.62799 3.85202 4.23996 4.24033C3.85623 4.63221 3.53675 5.08218 3.29329 5.57366C3.06989 6.03014 2.90846 6.51443 2.81329 7.01366C2.72863 7.57891 2.67964 8.14892 2.66663 8.72033C2.66663 8.97366 2.66663 9.33366 2.66663 9.44033V22.5603C2.66663 22.707 2.66663 23.027 2.66663 23.267C2.68161 23.8422 2.72611 24.4163 2.79996 24.987C2.89952 25.4868 3.06543 25.9711 3.29329 26.427C3.53161 26.9215 3.85166 27.3723 4.23996 27.7603C4.63184 28.1441 5.08182 28.4635 5.57329 28.707C6.02978 28.9304 6.51406 29.0918 7.01329 29.187C7.57854 29.2717 8.14856 29.3206 8.71996 29.3337H23.2666C23.8419 29.3187 24.416 29.2742 24.9866 29.2003C25.4865 29.1008 25.9707 28.9349 26.4266 28.707C26.9212 28.4687 27.3719 28.1486 27.76 27.7603C28.1437 27.3684 28.4632 26.9185 28.7066 26.427C28.93 25.9705 29.0915 25.4862 29.1866 24.987C29.2713 24.4217 29.3203 23.8517 29.3333 23.2803C29.3333 23.027 29.3333 22.707 29.3333 22.5603V9.44033C29.3333 9.33366 29.3333 8.97366 29.3333 8.73366ZM16.3066 25.3337C14.7054 25.3258 13.1321 24.913 11.7333 24.1337L6.66663 25.467L7.99996 20.507C7.14011 19.0623 6.67994 17.4149 6.66663 15.7337C6.67194 13.8442 7.23623 11.9986 8.28844 10.4293C9.34065 8.85992 10.8337 7.63703 12.5796 6.91461C14.3255 6.19219 16.2461 6.00255 18.0995 6.36958C19.953 6.7366 21.6564 7.64387 22.9952 8.97713C24.334 10.3104 25.2484 12.01 25.6231 13.8619C25.9978 15.7138 25.8162 17.6352 25.101 19.3841C24.3859 21.1329 23.1692 22.6311 21.6042 23.6898C20.0393 24.7485 18.196 25.3205 16.3066 25.3337V25.3337ZM16.3066 7.82699C14.893 7.84317 13.509 8.23364 12.2954 8.95864C11.0818 9.68365 10.0819 10.7173 9.39769 11.9544C8.71345 13.1914 8.36923 14.5877 8.40007 16.001C8.43092 17.4144 8.83573 18.7943 9.57329 20.0003L9.75996 20.307L8.95996 23.227L12 22.4003L12.2933 22.5737C13.5061 23.288 14.8858 23.6697 16.2933 23.6803V23.6803C18.415 23.6803 20.4499 22.8375 21.9501 21.3372C23.4504 19.8369 24.2933 17.8021 24.2933 15.6803C24.2933 13.5586 23.4504 11.5238 21.9501 10.0235C20.4499 8.52318 18.415 7.68033 16.2933 7.68033L16.3066 7.82699ZM20.9733 19.187C20.7987 19.4783 20.5648 19.7297 20.2869 19.9249C20.009 20.1201 19.6932 20.2548 19.36 20.3203C18.862 20.4113 18.3494 20.3793 17.8666 20.227C17.4124 20.085 16.9672 19.9158 16.5333 19.7203C14.8849 18.8932 13.4792 17.6529 12.4533 16.1203C11.8958 15.4103 11.5575 14.5531 11.48 13.6537C11.472 13.28 11.5427 12.9089 11.6874 12.5644C11.8321 12.2198 12.0476 11.9096 12.32 11.6537C12.4002 11.5627 12.4986 11.4896 12.6088 11.4391C12.7191 11.3886 12.8387 11.3617 12.96 11.3603H13.3333C13.48 11.3603 13.68 11.3603 13.8666 11.7737C14.0533 12.187 14.5466 13.427 14.6133 13.547C14.6461 13.611 14.6631 13.6818 14.6631 13.7537C14.6631 13.8255 14.6461 13.8964 14.6133 13.9603C14.5544 14.1052 14.4734 14.2401 14.3733 14.3603C14.2533 14.507 14.12 14.6803 14.0133 14.787C13.9066 14.8937 13.7733 15.027 13.9066 15.267C14.2694 15.8792 14.7185 16.4361 15.24 16.9203C15.8079 17.4221 16.4572 17.8234 17.16 18.107C17.4 18.227 17.5466 18.2137 17.68 18.107C17.8133 18.0003 18.28 17.4137 18.44 17.1737C18.6 16.9337 18.76 16.9737 18.9733 17.0537C19.1866 17.1337 20.3733 17.707 20.6133 17.827C20.8533 17.947 21 18.0003 21.0666 18.107C21.1245 18.456 21.0923 18.8139 20.9733 19.147V19.187Z" fill="black"/>
</svg>
